<svg xmlns="http://www.w3.org/2000/svg" viewBox="0 0 160 160" width="160" height="160">
  <defs>
    <linearGradient id="bg" x1="0" y1="0" x2="1" y2="1">
      <stop offset="0" stop-color="#99f6e4"/>
      <stop offset="1" stop-color="#5eead4"/>
    </linearGradient>
    <clipPath id="c"><circle cx="80" cy="80" r="80"/></clipPath>
  </defs>
  <g clip-path="url(#c)">
    <rect width="160" height="160" fill="url(#bg)"/>
    <circle cx="80" cy="70" r="30" fill="#0d9488"/>
    <path d="M28 160c0-30 24-52 52-52s52 22 52 52z" fill="#0d9488"/>
    <circle cx="80" cy="68" r="26" fill="#f0fdfa"/>
    <path d="M34 160c0-26 21-45 46-45s46 19 46 45z" fill="#f0fdfa"/>
    <circle cx="70" cy="66" r="3.5" fill="#134e4a"/>
    <circle cx="90" cy="66" r="3.5" fill="#134e4a"/>
    <path d="M70 78c4 4 16 4 20 0" fill="none" stroke="#134e4a" stroke-width="3" stroke-linecap="round"/>
    <path d="M50 56c2-16 58-16 60 2 0 0-8-8-30-8s-30 6-30 6z" fill="#0d9488"/>
  </g>
</svg>
