<svg xmlns="http://www.w3.org/2000/svg" viewBox="0 0 160 160" width="160" height="160">
  <defs>
    <linearGradient id="bg" x1="0" y1="0" x2="1" y2="1">
      <stop offset="0" stop-color="#c7d2fe"/>
      <stop offset="1" stop-color="#a5b4fc"/>
    </linearGradient>
    <clipPath id="c"><circle cx="80" cy="80" r="80"/></clipPath>
  </defs>
  <g clip-path="url(#c)">
    <rect width="160" height="160" fill="url(#bg)"/>
    <circle cx="80" cy="70" r="30" fill="#4f46e5"/>
    <path d="M28 160c0-30 24-52 52-52s52 22 52 52z" fill="#4f46e5"/>
    <circle cx="80" cy="68" r="26" fill="#eef2ff"/>
    <path d="M34 160c0-26 21-45 46-45s46 19 46 45z" fill="#eef2ff"/>
    <circle cx="70" cy="66" r="3.5" fill="#312e81"/>
    <circle cx="90" cy="66" r="3.5" fill="#312e81"/>
    <path d="M70 78c4 4 16 4 20 0" fill="none" stroke="#312e81" stroke-width="3" stroke-linecap="round"/>
    <path d="M56 52c6-12 42-12 48 0" fill="none" stroke="#4f46e5" stroke-width="7" stroke-linecap="round"/>
  </g>
</svg>
